# xmcd CD database file
#
# Track frame offsets:
#	150
#	22425
#	46192
#	63498
#	80808
#	97853
#	116239
#	142805
#	167625
#
# Disc length: 2660 seconds
#
# Revision: 2
# Processed by: cddbd v1.5.2PL0 Copyright (c) Steve Scherf et al.
# Submitted via: CDex 1.51
#
DISCID=780a6209
DTITLE=Haute Tenzion - Un monde à l'envers
DYEAR=2011
DGENRE=New Age
TTITLE0=Qui a le droit?
TTITLE1=Révolution
TTITLE2=Je changerai
TTITLE3=Crache ta haine
TTITLE4=Univers de pourris
TTITLE5=Bouge
TTITLE6=Au nom de la race
TTITLE7=Ne me quitte pas
TTITLE8=Si tu me reviens
EXTD=YEAR: 2011
EXTT0=
EXTT1=
EXTT2=
EXTT3=
EXTT4=
EXTT5=
EXTT6=
EXTT7=
EXTT8=
PLAYORDER=
